<mxfile host="app.diagrams.net" agent="Mozilla/5.0 (Windows NT 10.0; Win64; x64) AppleWebKit/537.36 (KHTML, like Gecko) Chrome/136.0.0.0 Safari/537.36 Edg/136.0.0.0" version="27.0.5">
  <diagram name="Pagina-1" id="usUCFi6DxspMPbo-lQXI">
    <mxGraphModel dx="203" dy="1282" grid="1" gridSize="10" guides="1" tooltips="1" connect="1" arrows="1" fold="1" page="1" pageScale="1" pageWidth="827" pageHeight="1169" math="0" shadow="0">
      <root>
        <mxCell id="0" />
        <mxCell id="1" parent="0" />
        <mxCell id="DfsBpMTSNot1hdR4ryCK-69" value="&lt;div&gt;&lt;span style=&quot;font-size: 10px;&quot;&gt;Cliente&lt;/span&gt;&lt;/div&gt;" style="whiteSpace=wrap;html=1;align=center;" parent="1" vertex="1">
          <mxGeometry x="300" y="-775" width="160" height="40" as="geometry" />
        </mxCell>
        <mxCell id="DfsBpMTSNot1hdR4ryCK-70" value="" style="ellipse;whiteSpace=wrap;html=1;aspect=fixed;fillStyle=dots;fillColor=#000000;strokeColor=default;gradientColor=default;fontSize=7;" parent="1" vertex="1">
          <mxGeometry x="320" y="-825" width="10" height="10" as="geometry" />
        </mxCell>
        <mxCell id="DfsBpMTSNot1hdR4ryCK-72" style="edgeStyle=orthogonalEdgeStyle;rounded=0;orthogonalLoop=1;jettySize=auto;html=1;entryX=0.5;entryY=0;entryDx=0;entryDy=0;entryPerimeter=0;" parent="1" edge="1">
          <mxGeometry relative="1" as="geometry">
            <mxPoint x="340" y="-895" as="sourcePoint" />
            <mxPoint x="340" y="-895" as="targetPoint" />
          </mxGeometry>
        </mxCell>
        <mxCell id="DfsBpMTSNot1hdR4ryCK-73" value="CF" style="text;html=1;align=center;verticalAlign=middle;resizable=0;points=[];autosize=1;strokeColor=none;fillColor=none;fontSize=8;" parent="1" vertex="1">
          <mxGeometry x="310" y="-840" width="30" height="20" as="geometry" />
        </mxCell>
        <mxCell id="DfsBpMTSNot1hdR4ryCK-74" value="" style="ellipse;whiteSpace=wrap;html=1;aspect=fixed;" parent="1" vertex="1">
          <mxGeometry x="375" y="-825" width="10" height="10" as="geometry" />
        </mxCell>
        <mxCell id="DfsBpMTSNot1hdR4ryCK-75" value="" style="ellipse;whiteSpace=wrap;html=1;aspect=fixed;rotation=-15;direction=south;" parent="1" vertex="1">
          <mxGeometry x="405" y="-825" width="10" height="10" as="geometry" />
        </mxCell>
        <mxCell id="DfsBpMTSNot1hdR4ryCK-76" value="" style="ellipse;whiteSpace=wrap;html=1;aspect=fixed;" parent="1" vertex="1">
          <mxGeometry x="350" y="-825" width="10" height="10" as="geometry" />
        </mxCell>
        <mxCell id="DfsBpMTSNot1hdR4ryCK-77" value="" style="ellipse;whiteSpace=wrap;html=1;aspect=fixed;" parent="1" vertex="1">
          <mxGeometry x="435" y="-825" width="10" height="10" as="geometry" />
        </mxCell>
        <mxCell id="DfsBpMTSNot1hdR4ryCK-79" value="&lt;font&gt;Nome&lt;/font&gt;&lt;div&gt;&lt;br&gt;&lt;/div&gt;" style="text;html=1;align=center;verticalAlign=middle;resizable=0;points=[];autosize=1;strokeColor=none;fillColor=none;imageHeight=8;fontSize=8;" parent="1" vertex="1">
          <mxGeometry x="330" y="-845" width="40" height="30" as="geometry" />
        </mxCell>
        <mxCell id="DfsBpMTSNot1hdR4ryCK-80" value="Cognome&lt;div&gt;&lt;br&gt;&lt;/div&gt;" style="text;html=1;align=center;verticalAlign=middle;resizable=0;points=[];autosize=1;strokeColor=none;fillColor=none;fontSize=8;" parent="1" vertex="1">
          <mxGeometry x="350" y="-845" width="60" height="30" as="geometry" />
        </mxCell>
        <mxCell id="DfsBpMTSNot1hdR4ryCK-82" value="&lt;font&gt;data&amp;nbsp;&lt;br&gt;nascita&lt;/font&gt;" style="text;html=1;align=center;verticalAlign=middle;resizable=0;points=[];autosize=1;strokeColor=none;fillColor=none;fontSize=8;" parent="1" vertex="1">
          <mxGeometry x="389" y="-850" width="50" height="30" as="geometry" />
        </mxCell>
        <mxCell id="DfsBpMTSNot1hdR4ryCK-84" value="&lt;font&gt;CittÃ &amp;nbsp;&lt;br&gt;nascita&lt;/font&gt;&lt;div&gt;&lt;br&gt;&lt;/div&gt;" style="text;html=1;align=center;verticalAlign=middle;resizable=0;points=[];autosize=1;strokeColor=none;fillColor=none;fontSize=8;" parent="1" vertex="1">
          <mxGeometry x="420" y="-850" width="50" height="40" as="geometry" />
        </mxCell>
        <mxCell id="DfsBpMTSNot1hdR4ryCK-86" value="&lt;font style=&quot;font-size: 10px;&quot;&gt;Carta di credito&lt;/font&gt;" style="ellipse;whiteSpace=wrap;html=1;align=center;" parent="1" vertex="1">
          <mxGeometry x="520" y="-775" width="80" height="30" as="geometry" />
        </mxCell>
        <mxCell id="DfsBpMTSNot1hdR4ryCK-88" value="" style="ellipse;whiteSpace=wrap;html=1;aspect=fixed;" parent="1" vertex="1">
          <mxGeometry x="545" y="-805" width="10" height="10" as="geometry" />
        </mxCell>
        <mxCell id="DfsBpMTSNot1hdR4ryCK-89" value="" style="ellipse;whiteSpace=wrap;html=1;aspect=fixed;" parent="1" vertex="1">
          <mxGeometry x="590" y="-805" width="10" height="10" as="geometry" />
        </mxCell>
        <mxCell id="DfsBpMTSNot1hdR4ryCK-90" value="" style="ellipse;whiteSpace=wrap;html=1;aspect=fixed;fontSize=7;" parent="1" vertex="1">
          <mxGeometry x="520" y="-800" width="10" height="10" as="geometry" />
        </mxCell>
        <mxCell id="DfsBpMTSNot1hdR4ryCK-91" value="" style="ellipse;whiteSpace=wrap;html=1;aspect=fixed;fontSize=7;" parent="1" vertex="1">
          <mxGeometry x="565" y="-805" width="10" height="10" as="geometry" />
        </mxCell>
        <mxCell id="DfsBpMTSNot1hdR4ryCK-93" value="Intestatario" style="text;html=1;align=center;verticalAlign=middle;resizable=0;points=[];autosize=1;strokeColor=none;fillColor=none;fontSize=8;" parent="1" vertex="1">
          <mxGeometry x="485" y="-815" width="60" height="20" as="geometry" />
        </mxCell>
        <mxCell id="DfsBpMTSNot1hdR4ryCK-94" value="CVV" style="text;html=1;align=center;verticalAlign=middle;resizable=0;points=[];autosize=1;strokeColor=none;fillColor=none;fontSize=8;" parent="1" vertex="1">
          <mxGeometry x="525" y="-820" width="40" height="20" as="geometry" />
        </mxCell>
        <mxCell id="DfsBpMTSNot1hdR4ryCK-96" value="&lt;font&gt;numero&lt;/font&gt;" style="text;html=1;align=center;verticalAlign=middle;resizable=0;points=[];autosize=1;strokeColor=none;fillColor=none;fontSize=8;horizontal=1;" parent="1" vertex="1">
          <mxGeometry x="545" y="-820" width="50" height="20" as="geometry" />
        </mxCell>
        <mxCell id="DfsBpMTSNot1hdR4ryCK-97" value="&lt;font&gt;data&lt;br&gt;scadenza&lt;/font&gt;" style="text;html=1;align=center;verticalAlign=middle;resizable=0;points=[];autosize=1;strokeColor=none;fillColor=none;fontSize=8;" parent="1" vertex="1">
          <mxGeometry x="580" y="-830" width="60" height="30" as="geometry" />
        </mxCell>
        <mxCell id="DfsBpMTSNot1hdR4ryCK-100" value="" style="ellipse;whiteSpace=wrap;html=1;aspect=fixed;" parent="1" vertex="1">
          <mxGeometry x="310" y="-710" width="10" height="10" as="geometry" />
        </mxCell>
        <mxCell id="DfsBpMTSNot1hdR4ryCK-102" value="indirizzo&lt;div&gt;spedizione&lt;/div&gt;" style="text;html=1;align=center;verticalAlign=middle;resizable=0;points=[];autosize=1;strokeColor=none;fillColor=none;fontSize=8;" parent="1" vertex="1">
          <mxGeometry x="290" y="-690" width="60" height="30" as="geometry" />
        </mxCell>
        <mxCell id="mZfasp18mzQJfAqXw7ZN-2" style="edgeStyle=orthogonalEdgeStyle;rounded=0;orthogonalLoop=1;jettySize=auto;html=1;exitX=0;exitY=0.5;exitDx=0;exitDy=0;entryX=0.996;entryY=0.369;entryDx=0;entryDy=0;entryPerimeter=0;endArrow=none;startFill=0;" parent="1" source="DfsBpMTSNot1hdR4ryCK-86" target="DfsBpMTSNot1hdR4ryCK-69" edge="1">
          <mxGeometry relative="1" as="geometry" />
        </mxCell>
        <mxCell id="mZfasp18mzQJfAqXw7ZN-3" style="edgeStyle=orthogonalEdgeStyle;rounded=0;orthogonalLoop=1;jettySize=auto;html=1;exitX=0.5;exitY=1;exitDx=0;exitDy=0;entryX=0.066;entryY=0.287;entryDx=0;entryDy=0;entryPerimeter=0;endArrow=none;startFill=0;" parent="1" source="DfsBpMTSNot1hdR4ryCK-90" target="DfsBpMTSNot1hdR4ryCK-86" edge="1">
          <mxGeometry relative="1" as="geometry" />
        </mxCell>
        <mxCell id="mZfasp18mzQJfAqXw7ZN-4" style="edgeStyle=orthogonalEdgeStyle;shape=connector;rounded=0;orthogonalLoop=1;jettySize=auto;html=1;exitX=0.5;exitY=1;exitDx=0;exitDy=0;entryX=0.378;entryY=0.033;entryDx=0;entryDy=0;entryPerimeter=0;strokeColor=default;align=center;verticalAlign=middle;fontFamily=Helvetica;fontSize=11;fontColor=default;labelBackgroundColor=default;startFill=0;endArrow=none;" parent="1" source="DfsBpMTSNot1hdR4ryCK-88" target="DfsBpMTSNot1hdR4ryCK-86" edge="1">
          <mxGeometry relative="1" as="geometry" />
        </mxCell>
        <mxCell id="mZfasp18mzQJfAqXw7ZN-5" style="edgeStyle=orthogonalEdgeStyle;shape=connector;rounded=0;orthogonalLoop=1;jettySize=auto;html=1;exitX=0.5;exitY=1;exitDx=0;exitDy=0;entryX=0.625;entryY=0.009;entryDx=0;entryDy=0;entryPerimeter=0;strokeColor=default;align=center;verticalAlign=middle;fontFamily=Helvetica;fontSize=11;fontColor=default;labelBackgroundColor=default;startFill=0;endArrow=none;" parent="1" source="DfsBpMTSNot1hdR4ryCK-91" target="DfsBpMTSNot1hdR4ryCK-86" edge="1">
          <mxGeometry relative="1" as="geometry" />
        </mxCell>
        <mxCell id="mZfasp18mzQJfAqXw7ZN-6" style="edgeStyle=orthogonalEdgeStyle;shape=connector;rounded=0;orthogonalLoop=1;jettySize=auto;html=1;exitX=0.5;exitY=1;exitDx=0;exitDy=0;entryX=0.931;entryY=0.264;entryDx=0;entryDy=0;entryPerimeter=0;strokeColor=default;align=center;verticalAlign=middle;fontFamily=Helvetica;fontSize=11;fontColor=default;labelBackgroundColor=default;startFill=0;endArrow=none;" parent="1" source="DfsBpMTSNot1hdR4ryCK-89" target="DfsBpMTSNot1hdR4ryCK-86" edge="1">
          <mxGeometry relative="1" as="geometry" />
        </mxCell>
        <mxCell id="pBJe5quUiS9y2-2PJ6T3-2" value="Utente" style="whiteSpace=wrap;html=1;align=center;" vertex="1" parent="1">
          <mxGeometry x="330" y="-960" width="100" height="40" as="geometry" />
        </mxCell>
        <mxCell id="pBJe5quUiS9y2-2PJ6T3-6" style="edgeStyle=orthogonalEdgeStyle;rounded=0;orthogonalLoop=1;jettySize=auto;html=1;exitX=0.5;exitY=0;exitDx=0;exitDy=0;entryX=0.085;entryY=0.977;entryDx=0;entryDy=0;entryPerimeter=0;endArrow=none;startFill=0;" edge="1" parent="1" source="DfsBpMTSNot1hdR4ryCK-100" target="DfsBpMTSNot1hdR4ryCK-69">
          <mxGeometry relative="1" as="geometry" />
        </mxCell>
      </root>
    </mxGraphModel>
  </diagram>
</mxfile>
